<?xml version="1.0" encoding="UTF-8"?>
<svg version="1.1" xmlns="http://www.w3.org/2000/svg" width="256" height="256">
<path d="M0 0 C1.07383942 -0.00852997 2.14767883 -0.01705994 3.25405884 -0.02584839 C4.427146 -0.02494202 5.60023315 -0.02403564 6.80886841 -0.02310181 C8.04827179 -0.02981903 9.28767517 -0.03653625 10.56463623 -0.04345703 C13.96146306 -0.05920228 17.35804539 -0.06581218 20.75489187 -0.0670886 C22.87832402 -0.06851106 25.00173061 -0.07278245 27.1251564 -0.07808304 C34.53667068 -0.0965818 41.94811306 -0.10475386 49.35964966 -0.10317993 C56.26253279 -0.10197861 63.16510321 -0.12307919 70.06790721 -0.15466726 C75.99925767 -0.18084021 81.93050605 -0.19154681 87.8619138 -0.19026911 C91.40231582 -0.18975976 94.9424399 -0.19542738 98.48278427 -0.21662521 C102.4327485 -0.23963033 106.38228562 -0.23048037 110.33230591 -0.21841431 C111.5013446 -0.22965332 112.6703833 -0.24089233 113.87484741 -0.25247192 C120.13938751 -0.20378818 123.93623301 0.05939681 128.69998169 4.26742554 C129.29810669 4.78305054 129.89623169 5.29867554 130.51248169 5.82992554 C133.57542422 9.53769807 132.86230855 14.33260601 132.87698364 18.86630249 C132.88355484 19.74467773 132.89012604 20.62305298 132.89689636 21.52804565 C132.91662043 24.43726689 132.9282895 27.34643655 132.93826294 30.25570679 C132.94233847 31.24942984 132.94641399 32.24315289 132.95061302 33.26698875 C132.97146916 38.52583992 132.98577332 43.78466501 132.99514771 49.04354858 C133.00621598 54.47431499 133.04062215 59.90467211 133.0803194 65.33529377 C133.10646547 69.51234193 133.11483772 73.68929222 133.11842918 77.86641502 C133.1232997 79.8682755 133.13492689 81.87013146 133.15346718 83.871912 C133.17781749 86.67505978 133.17690118 89.4771438 133.16995239 92.28036499 C133.18916748 93.51731361 133.18916748 93.51731361 133.20877075 94.7792511 C133.1609488 100.07947669 132.1779326 103.04062638 128.69998169 107.26742554 C123.10638974 112.18300634 116.65325448 111.67589102 109.60623169 111.54086304 C104.54588464 111.18663874 102.47452385 110.61304246 98.69998169 107.26742554 C93.59535838 100.70209999 94.1813294 94.04438303 94.30935669 86.02133179 C94.31682776 84.64128951 94.3225166 83.26123654 94.32650757 81.88117981 C94.34169617 78.26912553 94.38091737 74.65772642 94.42532349 71.04592896 C94.466424 67.35227478 94.48476993 63.65851038 94.50466919 59.96469116 C94.5452926 52.73169284 94.62359852 45.50048778 94.69998169 38.26742554 C77.37498169 38.76242554 77.37498169 38.76242554 59.69998169 39.26742554 C59.69998169 74.90742554 59.69998169 110.54742554 59.69998169 147.26742554 C80.49242688 147.10925216 80.49242688 147.10925216 101.28445435 146.90707397 C103.89431098 146.8953897 106.50417491 146.88519726 109.11404419 146.87680054 C109.78672333 146.86634705 110.45940247 146.85589355 111.15246582 146.84512329 C113.1493978 146.81566119 115.14668018 146.81406738 117.14382935 146.81332397 C118.82927353 146.80000031 118.82927353 146.80000031 120.54876709 146.78640747 C125.30310458 147.5121347 128.45439815 149.81117248 131.54763794 153.42758179 C133.21467011 157.53582717 133.17468163 161.31195061 133.13748169 165.70492554 C133.15746216 166.53830444 133.17744263 167.37168335 133.19802856 168.23031616 C133.19296912 174.630512 131.67342913 178.26717982 127.07739067 182.9046402 C123.62994402 184.88079566 120.3055299 184.68805255 116.43878174 184.66183472 C115.59838565 184.66792582 114.75798956 184.67401692 113.89212692 184.68029261 C111.07159412 184.69696285 108.25151077 184.69214107 105.43093872 184.68734741 C103.41054819 184.69468544 101.39016186 184.70327088 99.36978149 184.7130127 C93.8780181 184.73526623 88.38640459 184.73815743 82.8946023 184.73626518 C78.31200824 184.73614565 73.72944614 184.74470277 69.14686096 184.7530427 C58.33625851 184.77229086 47.52573329 184.77515554 36.71511841 184.7684021 C25.55877054 184.76176095 14.40275328 184.78462557 3.24647248 184.82171583 C-6.32816441 184.85239399 -15.90269485 184.86377487 -25.47737992 184.85987902 C-31.19753413 184.85780946 -36.91743118 184.86332267 -42.63753891 184.88777161 C-48.01715399 184.91000471 -53.39623104 184.90818927 -58.77584839 184.88784409 C-60.75033103 184.8844279 -62.72484964 184.88954924 -64.6992836 184.90382767 C-67.39510252 184.92197767 -70.08908798 184.90930331 -72.78485107 184.8888855 C-73.5661809 184.90140335 -74.34751072 184.91392119 -75.1525172 184.92681837 C-81.00056687 184.83186293 -83.34824481 183.27543961 -87.30001831 179.26742554 C-90.07353586 175.0856452 -89.66760802 170.75357338 -89.67501831 165.89242554 C-89.6995105 165.05453491 -89.72400269 164.21664429 -89.74923706 163.35336304 C-89.77523763 157.84124314 -89.09238811 154.55163851 -85.30001831 150.26742554 C-80.64761005 146.50458056 -76.16645784 146.86049875 -70.46090698 146.92684937 C-69.45917356 146.92648776 -68.45744013 146.92612616 -67.42535114 146.92575359 C-64.18935838 146.92798911 -60.95388685 146.95081846 -57.71798706 146.97445679 C-55.71754201 146.97886875 -53.7170935 146.9819286 -51.71664429 146.98361206 C-44.30688274 146.99932781 -36.89719538 147.04121154 -29.48751831 147.07992554 C-4.64470581 147.17273804 -4.64470581 147.17273804 20.69998169 147.26742554 C20.69998169 111.29742554 20.69998169 75.32742554 20.69998169 38.26742554 C11.78998169 38.26742554 2.87998169 38.26742554 -6.30001831 38.26742554 C-14.32474661 32.53547675 -14.32474661 32.53547675 -15.30001831 29.26742554 C-15.7820349 26.00833609 -15.76183169 22.74613473 -15.80001831 19.45492554 C-15.84126831 18.57771851 -15.88251831 17.70051147 -15.92501831 16.79672241 C-15.99449391 10.99116745 -14.99486878 7.8717779 -10.98556519 3.63583374 C-7.4190356 0.7403531 -4.56991884 0.01642681 0 0 Z " fill="#CE1126" transform="translate(106.30001831054688,71.73257446289063)"/>
<path d="M0 0 C1.24962512 -0.00807831 1.24962512 -0.00807831 2.52449518 -0.01631981 C5.31429661 -0.03062027 8.10362495 -0.02349054 10.89344788 -0.01637268 C12.89428082 -0.02207515 14.89511051 -0.02903893 16.89593506 -0.03717041 C22.32979966 -0.05513041 27.76350303 -0.05392808 33.19738841 -0.04822803 C37.73280966 -0.04514031 42.26819976 -0.05122397 46.80361658 -0.05726677 C57.50253196 -0.0713197 68.2013675 -0.06974428 78.90028381 -0.05836487 C89.94016399 -0.04688233 100.97980128 -0.06095995 112.01964945 -0.08776134 C121.49664076 -0.10990772 130.97355577 -0.11655812 140.45057112 -0.11068493 C146.11142356 -0.10731169 151.77212028 -0.10975491 157.43295097 -0.12693596 C162.75589204 -0.14238603 168.07847288 -0.13847091 173.40139961 -0.11963081 C175.35491491 -0.1159396 177.30845678 -0.11906886 179.26194763 -0.1295166 C181.92903616 -0.14269176 184.59492604 -0.13121012 187.26196289 -0.11352539 C188.0348287 -0.1231304 188.8076945 -0.1327354 189.60398048 -0.14263147 C194.77909545 -0.07203827 197.69725635 1.13905869 201.69447327 4.38768005 C205.44409835 8.7714912 205.17854862 13.32505424 205.13197327 18.82518005 C205.15195374 19.65855896 205.1719342 20.49193787 205.19252014 21.35057068 C205.18817245 26.85039835 204.36988466 30.04462512 200.69447327 34.38768005 C195.44780162 38.191517 191.10075159 38.51261134 184.72163391 38.50793457 C184.01992876 38.508789 183.31822361 38.50964342 182.59525466 38.51052374 C180.24451248 38.51217055 177.89384169 38.50667023 175.54310608 38.50120544 C173.85780845 38.50092337 172.17251069 38.50108169 170.48721313 38.50164795 C165.91113892 38.50193515 161.33509085 38.49605085 156.75902271 38.48907399 C151.97707056 38.48282765 147.19511783 38.48223564 142.41316223 38.48104858 C133.35742681 38.47793906 124.30170345 38.46973075 115.24597335 38.45969909 C103.00925909 38.44643756 90.77254154 38.44103499 78.53582191 38.43519688 C59.25536333 38.42579062 39.97493019 38.40586916 20.69447327 38.38768005 C20.69447327 73.69768005 20.69447327 109.00768005 20.69447327 145.38768005 C29.60447327 145.38768005 38.51447327 145.38768005 47.69447327 145.38768005 C55.83733041 150.81625148 55.83733041 150.81625148 57.69447327 156.38768005 C58.71652181 171.60112392 58.71652181 171.60112392 56.13197327 176.63768005 C52.61965401 180.60029665 49.32396298 183.02067881 44.06211853 183.75508118 C40.91041822 183.89943612 37.78292623 183.91586628 34.62806702 183.8837738 C33.47581131 183.88522903 32.3235556 183.88668427 31.13638306 183.88818359 C28.70821089 183.88652844 26.28002781 183.87501042 23.85194397 183.85423279 C20.14079654 183.82524896 16.43107618 183.83363918 12.71986389 183.84666443 C10.35592468 183.84042739 7.99198996 183.83203672 5.62806702 183.8212738 C3.9684922 183.82567726 3.9684922 183.82567726 2.27539062 183.83016968 C-3.30112084 183.76202918 -7.54160869 183.63102334 -12.30552673 180.38768005 C-16.53799442 175.69764829 -17.43041698 173.21667398 -17.45269775 166.96147156 C-17.45637444 166.29429352 -17.46005113 165.62711547 -17.46383923 164.93971992 C-17.47489386 162.69352446 -17.47872291 160.44737523 -17.48252869 158.20115662 C-17.48879203 156.59485222 -17.49543871 154.98854927 -17.50244141 153.38224792 C-17.51986383 149.01020715 -17.53040669 144.63817732 -17.53864694 140.26611042 C-17.54379478 137.53530753 -17.54987063 134.80450806 -17.55615807 132.07370758 C-17.57521418 123.53179715 -17.58944405 114.98989538 -17.59777004 106.44796777 C-17.60754304 96.58393814 -17.6338624 86.72013289 -17.67427093 76.85618234 C-17.70442197 69.23487794 -17.71923797 61.61363789 -17.72255105 53.992275 C-17.72490282 49.43910257 -17.73387956 44.88616973 -17.75901222 40.33306122 C-17.78228015 36.04844927 -17.78653143 31.76423485 -17.77625084 27.47957611 C-17.77575504 25.90822529 -17.78208845 24.33685498 -17.79580688 22.76556396 C-17.81351199 20.61717454 -17.80642829 18.4702139 -17.79327393 16.32182312 C-17.79566228 15.12055912 -17.79805063 13.91929512 -17.80051136 12.68162918 C-17.05249281 7.703828 -14.91389893 4.72199396 -11.07462215 1.53691006 C-7.37187403 0.0001955 -3.94260762 -0.03057071 0 0 Z " fill="#0139A8" transform="translate(34.30552673339844,-0.3876800537109375)"/>
<path d="M0 0 C1.07383942 -0.00852997 2.14767883 -0.01705994 3.25405884 -0.02584839 C4.427146 -0.02494202 5.60023315 -0.02403564 6.80886841 -0.02310181 C8.04827179 -0.02981903 9.28767517 -0.03653625 10.56463623 -0.04345703 C13.96146306 -0.05920228 17.35804539 -0.06581218 20.75489187 -0.0670886 C22.87832402 -0.06851106 25.00173061 -0.07278245 27.1251564 -0.07808304 C34.53667068 -0.0965818 41.94811306 -0.10475386 49.35964966 -0.10317993 C56.26253279 -0.10197861 63.16510321 -0.12307919 70.06790721 -0.15466726 C75.99925767 -0.18084021 81.93050605 -0.19154681 87.8619138 -0.19026911 C91.40231582 -0.18975976 94.9424399 -0.19542738 98.48278427 -0.21662521 C102.4327485 -0.23963033 106.38228562 -0.23048037 110.33230591 -0.21841431 C111.5013446 -0.22965332 112.6703833 -0.24089233 113.87484741 -0.25247192 C120.13938751 -0.20378818 123.93623301 0.05939681 128.69998169 4.26742554 C129.29810669 4.78305054 129.89623169 5.29867554 130.51248169 5.82992554 C133.57542422 9.53769807 132.86230855 14.33260601 132.87698364 18.86630249 C132.88355484 19.74467773 132.89012604 20.62305298 132.89689636 21.52804565 C132.91662043 24.43726689 132.9282895 27.34643655 132.93826294 30.25570679 C132.94233847 31.24942984 132.94641399 32.24315289 132.95061302 33.26698875 C132.97146916 38.52583992 132.98577332 43.78466501 132.99514771 49.04354858 C133.00621598 54.47431499 133.04062215 59.90467211 133.0803194 65.33529377 C133.10646547 69.51234193 133.11483772 73.68929222 133.11842918 77.86641502 C133.1232997 79.8682755 133.13492689 81.87013146 133.15346718 83.871912 C133.17781749 86.67505978 133.17690118 89.4771438 133.16995239 92.28036499 C133.18916748 93.51731361 133.18916748 93.51731361 133.20877075 94.7792511 C133.1609488 100.07947669 132.1779326 103.04062638 128.69998169 107.26742554 C123.10638974 112.18300634 116.65325448 111.67589102 109.60623169 111.54086304 C104.54588464 111.18663874 102.47452385 110.61304246 98.69998169 107.26742554 C93.59535838 100.70209999 94.1813294 94.04438303 94.30935669 86.02133179 C94.31682776 84.64128951 94.3225166 83.26123654 94.32650757 81.88117981 C94.34169617 78.26912553 94.38091737 74.65772642 94.42532349 71.04592896 C94.46642402 67.35227315 94.48454992 63.65851029 94.50466919 59.96469116 C94.54742005 52.73197233 94.61558679 45.49979114 94.69998169 38.26742554 C92.82529457 38.28408012 92.82529457 38.28408012 90.91273499 38.30107117 C79.12736383 38.4024852 67.34208135 38.47740951 55.55637264 38.5264864 C49.49736769 38.55256574 43.43871535 38.58793453 37.37991333 38.6446228 C31.53140872 38.69900023 25.68324301 38.72885858 19.83450508 38.74181175 C17.60457589 38.75104121 15.37466498 38.76906435 13.14488029 38.79607582 C10.01822897 38.83244116 6.89297302 38.8373676 3.7661438 38.83505249 C2.84688614 38.85302887 1.92762848 38.87100525 0.98051453 38.88952637 C-5.37775323 38.83867721 -8.50050308 37.47051879 -13.30001831 33.26742554 C-16.20324132 29.09379149 -15.74300213 24.36900722 -15.80001831 19.45492554 C-15.84126831 18.57771851 -15.88251831 17.70051147 -15.92501831 16.79672241 C-15.99449391 10.99116745 -14.99486878 7.8717779 -10.98556519 3.63583374 C-7.4190356 0.7403531 -4.56991884 0.01642681 0 0 Z " fill="#F6BA15" transform="translate(106.30001831054688,71.73257446289063)"/>
</svg>
